<svg xmlns="http://www.w3.org/2000/svg" viewBox="0 0 64 64">
  <defs>
    <filter id="r" x="-10%" y="-10%" width="120%" height="120%"><feTurbulence type="fractalNoise" baseFrequency="0.035" numOctaves="2" seed="4"/><feDisplacementMap in="SourceGraphic" scale="2.2"/></filter>
  </defs>
  <rect width="64" height="64" rx="14" fill="#22301f"/>
  <g filter="url(#r)" stroke="#f1e8d0" stroke-linecap="round" stroke-linejoin="round">
    <path d="M8.5 41.5c0 5.6 10.8 9.6 23.5 9.6s23.5-4 23.5-9.6" fill="#1b2619" stroke-width="1.8"/>
    <ellipse cx="32" cy="41.5" rx="23.5" ry="8.6" fill="#55777b" stroke-width="1.9"/>
    <ellipse cx="32" cy="41.5" rx="21.6" ry="7.5" fill="none" stroke="#fbf7ec" stroke-width="2" stroke-dasharray="5 2.2 8 3 3 2"/>
    <path d="M14.5 40.6c1.6-2.4 5.4-2.9 7.3-1.4 1.3 1.1-.4 2.6-2.4 3.3-1.8.7-1.5 2.4-3.4 2.1-1.9-.4-2.6-2.4-1.5-4z" fill="#cdb98a" stroke-width="1"/>
    <path d="M37.6 37.9c2.2-1.3 6.3-1.1 8.3.6 1.4 1.3-.2 2.6-2.4 2.6-1.4 0-1.3 1.7-3.3 1.6-2.3-.1-4.6-3.3-2.6-4.8z" fill="#b7bb8d" stroke-width="1"/>
    <path d="M33.6 40.2V9.5" stroke-width="2.8"/>
    <path d="M33.9 9.5c4.9 1.3 9.3 4.5 9.2 9.6-.1 3.4-2 5.5-4 6.8 1.4-2.8 1.6-5.6-.6-7.8-1.3-1.4-3-2.2-4.6-2.6" fill="#d9a441" stroke-width="1.6"/>
    <ellipse cx="29.3" cy="39.3" rx="5" ry="3.5" transform="rotate(-22 29.3 39.3)" fill="#d9a441" stroke-width="1.7"/>
  </g>
</svg>
